<svg xmlns="http://www.w3.org/2000/svg" width="760" height="220"><rect x="20" y="179.5" width="6" height="0.5" fill="#f9844a" /><rect x="28" y="179.9" width="6" height="0.1" fill="#f9844a" /><rect x="36" y="179.0" width="6" height="1.0" fill="#f9844a" /><rect x="44" y="172.8" width="6" height="7.2" fill="#f9844a" /><rect x="52" y="144.9" width="6" height="35.1" fill="#f9844a" /><rect x="60" y="167.3" width="6" height="12.7" fill="#f9844a" /><rect x="68" y="172.5" width="6" height="7.5" fill="#f9844a" /><rect x="76" y="178.9" width="6" height="1.1" fill="#f9844a" /><rect x="84" y="176.8" width="6" height="3.2" fill="#f9844a" /><rect x="92" y="177.9" width="6" height="2.1" fill="#f9844a" /><rect x="100" y="178.3" width="6" height="1.7" fill="#f9844a" /><rect x="108" y="179.7" width="6" height="0.3" fill="#f9844a" /><rect x="116" y="178.9" width="6" height="1.1" fill="#f9844a" /><rect x="124" y="178.0" width="6" height="2.0" fill="#f9844a" /><rect x="132" y="179.2" width="6" height="0.8" fill="#f9844a" /><rect x="140" y="178.9" width="6" height="1.1" fill="#f9844a" /><rect x="148" y="178.9" width="6" height="1.1" fill="#f9844a" /><rect x="156" y="176.6" width="6" height="3.4" fill="#f9844a" /><rect x="164" y="179.8" width="6" height="0.2" fill="#f9844a" /><rect x="172" y="178.4" width="6" height="1.6" fill="#f9844a" /><rect x="180" y="173.4" width="6" height="6.6" fill="#f9844a" /><rect x="188" y="175.3" width="6" height="4.7" fill="#f9844a" /><rect x="196" y="177.7" width="6" height="2.3" fill="#f9844a" /><rect x="204" y="177.7" width="6" height="2.3" fill="#f9844a" /><rect x="212" y="179.1" width="6" height="0.9" fill="#f9844a" /><rect x="220" y="179.2" width="6" height="0.8" fill="#f9844a" /><rect x="228" y="176.4" width="6" height="3.6" fill="#f9844a" /><rect x="236" y="148.0" width="6" height="32.0" fill="#f9844a" /><rect x="244" y="178.4" width="6" height="1.6" fill="#f9844a" /><rect x="252" y="178.3" width="6" height="1.7" fill="#f9844a" /><rect x="260" y="178.9" width="6" height="1.1" fill="#f9844a" /><rect x="268" y="179.0" width="6" height="1.0" fill="#f9844a" /><rect x="276" y="178.1" width="6" height="1.9" fill="#f9844a" /><rect x="284" y="178.7" width="6" height="1.3" fill="#f9844a" /><rect x="292" y="178.6" width="6" height="1.4" fill="#f9844a" /><rect x="300" y="177.0" width="6" height="3.0" fill="#f9844a" /><rect x="308" y="179.8" width="6" height="0.2" fill="#f9844a" /><rect x="316" y="176.2" width="6" height="3.8" fill="#f9844a" /><rect x="324" y="177.5" width="6" height="2.5" fill="#f9844a" /><rect x="332" y="179.0" width="6" height="1.0" fill="#f9844a" /><rect x="340" y="178.4" width="6" height="1.6" fill="#f9844a" /><rect x="348" y="179.3" width="6" height="0.7" fill="#f9844a" /><rect x="356" y="163.4" width="6" height="16.6" fill="#f9844a" /><rect x="364" y="169.0" width="6" height="11.0" fill="#f9844a" /><rect x="372" y="157.7" width="6" height="22.3" fill="#f9844a" /><rect x="380" y="175.4" width="6" height="4.6" fill="#f9844a" /><rect x="388" y="175.7" width="6" height="4.3" fill="#f9844a" /><rect x="396" y="176.9" width="6" height="3.1" fill="#f9844a" /><rect x="404" y="179.6" width="6" height="0.4" fill="#f9844a" /><rect x="412" y="179.8" width="6" height="0.2" fill="#f9844a" /><rect x="420" y="177.8" width="6" height="2.2" fill="#f9844a" /><rect x="428" y="178.3" width="6" height="1.7" fill="#f9844a" /><rect x="436" y="179.7" width="6" height="0.3" fill="#f9844a" /><rect x="444" y="179.8" width="6" height="0.2" fill="#f9844a" /><rect x="452" y="177.0" width="6" height="3.0" fill="#f9844a" /><rect x="460" y="179.8" width="6" height="0.2" fill="#f9844a" /><rect x="468" y="178.7" width="6" height="1.3" fill="#f9844a" /><rect x="476" y="180.0" width="6" height="0.0" fill="#f9844a" /><rect x="484" y="177.8" width="6" height="2.2" fill="#f9844a" /><rect x="492" y="179.6" width="6" height="0.4" fill="#f9844a" /><rect x="500" y="172.6" width="6" height="7.4" fill="#f9844a" /><rect x="508" y="177.1" width="6" height="2.9" fill="#f9844a" /><rect x="516" y="175.7" width="6" height="4.3" fill="#f9844a" /><rect x="524" y="179.3" width="6" height="0.7" fill="#f9844a" /><rect x="532" y="179.3" width="6" height="0.7" fill="#f9844a" /><rect x="540" y="171.2" width="6" height="8.8" fill="#f9844a" /><rect x="548" y="170.5" width="6" height="9.5" fill="#f9844a" /><rect x="556" y="154.9" width="6" height="25.1" fill="#f9844a" /><rect x="564" y="179.9" width="6" height="0.1" fill="#f9844a" /><rect x="572" y="179.9" width="6" height="0.1" fill="#f9844a" /><rect x="580" y="179.2" width="6" height="0.8" fill="#f9844a" /><rect x="588" y="172.7" width="6" height="7.3" fill="#f9844a" /><rect x="596" y="178.9" width="6" height="1.1" fill="#f9844a" /><rect x="604" y="178.9" width="6" height="1.1" fill="#f9844a" /><rect x="612" y="179.0" width="6" height="1.0" fill="#f9844a" /><rect x="620" y="175.9" width="6" height="4.1" fill="#f9844a" /><rect x="628" y="177.4" width="6" height="2.6" fill="#f9844a" /><rect x="636" y="179.6" width="6" height="0.4" fill="#f9844a" /><rect x="644" y="179.0" width="6" height="1.0" fill="#f9844a" /><rect x="652" y="178.9" width="6" height="1.1" fill="#f9844a" /><text x="20" y="205" font-size="12">absolute correlation samples</text></svg>