<svg xmlns="http://www.w3.org/2000/svg" width="760" height="220"><rect x="20" y="57.6" width="6" height="122.4" fill="#f9844a" /><rect x="28" y="58.5" width="6" height="121.5" fill="#f9844a" /><rect x="36" y="58.5" width="6" height="121.5" fill="#f9844a" /><rect x="44" y="58.5" width="6" height="121.5" fill="#f9844a" /><rect x="52" y="58.5" width="6" height="121.5" fill="#f9844a" /><rect x="60" y="69.5" width="6" height="110.5" fill="#f9844a" /><rect x="68" y="69.5" width="6" height="110.5" fill="#f9844a" /><rect x="76" y="69.5" width="6" height="110.5" fill="#f9844a" /><rect x="84" y="94.0" width="6" height="86.0" fill="#f9844a" /><rect x="92" y="165.4" width="6" height="14.6" fill="#f9844a" /><rect x="100" y="67.0" width="6" height="113.0" fill="#f9844a" /><rect x="108" y="155.9" width="6" height="24.1" fill="#f9844a" /><rect x="116" y="155.9" width="6" height="24.1" fill="#f9844a" /><rect x="124" y="155.9" width="6" height="24.1" fill="#f9844a" /><rect x="132" y="155.9" width="6" height="24.1" fill="#f9844a" /><rect x="140" y="173.2" width="6" height="6.8" fill="#f9844a" /><rect x="148" y="173.2" width="6" height="6.8" fill="#f9844a" /><rect x="156" y="173.2" width="6" height="6.8" fill="#f9844a" /><rect x="164" y="139.0" width="6" height="41.0" fill="#f9844a" /><rect x="172" y="111.2" width="6" height="68.8" fill="#f9844a" /><rect x="180" y="104.7" width="6" height="75.3" fill="#f9844a" /><rect x="188" y="48.5" width="6" height="131.5" fill="#f9844a" /><rect x="196" y="48.5" width="6" height="131.5" fill="#f9844a" /><rect x="204" y="48.5" width="6" height="131.5" fill="#f9844a" /><rect x="212" y="48.5" width="6" height="131.5" fill="#f9844a" /><rect x="220" y="93.8" width="6" height="86.2" fill="#f9844a" /><rect x="228" y="93.8" width="6" height="86.2" fill="#f9844a" /><rect x="236" y="93.8" width="6" height="86.2" fill="#f9844a" /><rect x="244" y="152.2" width="6" height="27.8" fill="#f9844a" /><rect x="252" y="180.0" width="6" height="0.0" fill="#f9844a" /><rect x="260" y="177.9" width="6" height="2.1" fill="#f9844a" /><rect x="268" y="93.8" width="6" height="86.2" fill="#f9844a" /><rect x="276" y="93.8" width="6" height="86.2" fill="#f9844a" /><rect x="284" y="93.8" width="6" height="86.2" fill="#f9844a" /><rect x="292" y="93.8" width="6" height="86.2" fill="#f9844a" /><rect x="300" y="170.9" width="6" height="9.1" fill="#f9844a" /><rect x="308" y="170.9" width="6" height="9.1" fill="#f9844a" /><rect x="316" y="170.9" width="6" height="9.1" fill="#f9844a" /><rect x="324" y="151.8" width="6" height="28.2" fill="#f9844a" /><rect x="332" y="115.2" width="6" height="64.8" fill="#f9844a" /><rect x="340" y="93.6" width="6" height="86.4" fill="#f9844a" /><rect x="348" y="72.5" width="6" height="107.5" fill="#f9844a" /><rect x="356" y="72.5" width="6" height="107.5" fill="#f9844a" /><rect x="364" y="72.5" width="6" height="107.5" fill="#f9844a" /><rect x="372" y="72.5" width="6" height="107.5" fill="#f9844a" /><rect x="380" y="118.2" width="6" height="61.8" fill="#f9844a" /><rect x="388" y="118.2" width="6" height="61.8" fill="#f9844a" /><rect x="396" y="118.2" width="6" height="61.8" fill="#f9844a" /><rect x="404" y="124.3" width="6" height="55.7" fill="#f9844a" /><rect x="412" y="171.1" width="6" height="8.9" fill="#f9844a" /><rect x="420" y="92.1" width="6" height="87.9" fill="#f9844a" /><rect x="428" y="92.5" width="6" height="87.5" fill="#f9844a" /><rect x="436" y="92.5" width="6" height="87.5" fill="#f9844a" /><rect x="444" y="92.5" width="6" height="87.5" fill="#f9844a" /><rect x="452" y="92.5" width="6" height="87.5" fill="#f9844a" /><rect x="460" y="59.3" width="6" height="120.7" fill="#f9844a" /><rect x="468" y="59.3" width="6" height="120.7" fill="#f9844a" /><rect x="476" y="59.3" width="6" height="120.7" fill="#f9844a" /><rect x="484" y="77.1" width="6" height="102.9" fill="#f9844a" /><rect x="492" y="166.4" width="6" height="13.6" fill="#f9844a" /><rect x="500" y="76.5" width="6" height="103.5" fill="#f9844a" /><rect x="508" y="163.5" width="6" height="16.5" fill="#f9844a" /><rect x="516" y="163.5" width="6" height="16.5" fill="#f9844a" /><rect x="524" y="163.5" width="6" height="16.5" fill="#f9844a" /><rect x="532" y="163.5" width="6" height="16.5" fill="#f9844a" /><rect x="540" y="139.7" width="6" height="40.3" fill="#f9844a" /><rect x="548" y="139.7" width="6" height="40.3" fill="#f9844a" /><rect x="556" y="139.7" width="6" height="40.3" fill="#f9844a" /><rect x="564" y="103.1" width="6" height="76.9" fill="#f9844a" /><rect x="572" y="77.0" width="6" height="103.0" fill="#f9844a" /><rect x="580" y="103.3" width="6" height="76.7" fill="#f9844a" /><rect x="588" y="102.7" width="6" height="77.3" fill="#f9844a" /><rect x="596" y="102.7" width="6" height="77.3" fill="#f9844a" /><rect x="604" y="102.7" width="6" height="77.3" fill="#f9844a" /><rect x="612" y="102.7" width="6" height="77.3" fill="#f9844a" /><rect x="620" y="94.6" width="6" height="85.4" fill="#f9844a" /><rect x="628" y="94.6" width="6" height="85.4" fill="#f9844a" /><rect x="636" y="94.6" width="6" height="85.4" fill="#f9844a" /><rect x="644" y="144.4" width="6" height="35.6" fill="#f9844a" /><rect x="652" y="180.0" width="6" height="0.0" fill="#f9844a" /><text x="20" y="205" font-size="12">absolute correlation samples</text></svg>