<svg xmlns="http://www.w3.org/2000/svg" width="760" height="220"><rect x="20" y="178.4" width="6" height="1.6" fill="#f9844a" /><rect x="28" y="179.6" width="6" height="0.4" fill="#f9844a" /><rect x="36" y="173.0" width="6" height="7.0" fill="#f9844a" /><rect x="44" y="173.0" width="6" height="7.0" fill="#f9844a" /><rect x="52" y="173.0" width="6" height="7.0" fill="#f9844a" /><rect x="60" y="173.0" width="6" height="7.0" fill="#f9844a" /><rect x="68" y="160.6" width="6" height="19.4" fill="#f9844a" /><rect x="76" y="160.6" width="6" height="19.4" fill="#f9844a" /><rect x="84" y="160.6" width="6" height="19.4" fill="#f9844a" /><rect x="92" y="151.1" width="6" height="28.9" fill="#f9844a" /><rect x="100" y="169.2" width="6" height="10.8" fill="#f9844a" /><rect x="108" y="173.0" width="6" height="7.0" fill="#f9844a" /><rect x="116" y="175.8" width="6" height="4.2" fill="#f9844a" /><rect x="124" y="176.3" width="6" height="3.7" fill="#f9844a" /><rect x="132" y="177.6" width="6" height="2.4" fill="#f9844a" /><rect x="140" y="177.6" width="6" height="2.4" fill="#f9844a" /><rect x="148" y="177.6" width="6" height="2.4" fill="#f9844a" /><rect x="156" y="177.6" width="6" height="2.4" fill="#f9844a" /><rect x="164" y="178.7" width="6" height="1.3" fill="#f9844a" /><rect x="172" y="178.7" width="6" height="1.3" fill="#f9844a" /><rect x="180" y="178.7" width="6" height="1.3" fill="#f9844a" /><rect x="188" y="178.9" width="6" height="1.1" fill="#f9844a" /><rect x="196" y="179.7" width="6" height="0.3" fill="#f9844a" /><rect x="204" y="178.8" width="6" height="1.2" fill="#f9844a" /><rect x="212" y="176.3" width="6" height="3.7" fill="#f9844a" /><rect x="220" y="179.8" width="6" height="0.2" fill="#f9844a" /><rect x="228" y="178.3" width="6" height="1.7" fill="#f9844a" /><rect x="236" y="178.3" width="6" height="1.7" fill="#f9844a" /><rect x="244" y="178.3" width="6" height="1.7" fill="#f9844a" /><rect x="252" y="178.3" width="6" height="1.7" fill="#f9844a" /><rect x="260" y="169.7" width="6" height="10.3" fill="#f9844a" /><rect x="268" y="169.7" width="6" height="10.3" fill="#f9844a" /><rect x="276" y="169.7" width="6" height="10.3" fill="#f9844a" /><rect x="284" y="173.4" width="6" height="6.6" fill="#f9844a" /><rect x="292" y="175.6" width="6" height="4.4" fill="#f9844a" /><rect x="300" y="177.7" width="6" height="2.3" fill="#f9844a" /><rect x="308" y="179.9" width="6" height="0.1" fill="#f9844a" /><rect x="316" y="175.7" width="6" height="4.3" fill="#f9844a" /><rect x="324" y="147.6" width="6" height="32.4" fill="#f9844a" /><rect x="332" y="147.6" width="6" height="32.4" fill="#f9844a" /><rect x="340" y="147.6" width="6" height="32.4" fill="#f9844a" /><rect x="348" y="147.6" width="6" height="32.4" fill="#f9844a" /><rect x="356" y="136.9" width="6" height="43.1" fill="#f9844a" /><rect x="364" y="136.9" width="6" height="43.1" fill="#f9844a" /><rect x="372" y="136.9" width="6" height="43.1" fill="#f9844a" /><rect x="380" y="179.1" width="6" height="0.9" fill="#f9844a" /><rect x="388" y="179.0" width="6" height="1.0" fill="#f9844a" /><rect x="396" y="179.7" width="6" height="0.3" fill="#f9844a" /><rect x="404" y="176.5" width="6" height="3.5" fill="#f9844a" /><rect x="412" y="176.6" width="6" height="3.4" fill="#f9844a" /><rect x="420" y="175.6" width="6" height="4.4" fill="#f9844a" /><rect x="428" y="175.6" width="6" height="4.4" fill="#f9844a" /><rect x="436" y="175.6" width="6" height="4.4" fill="#f9844a" /><rect x="444" y="175.6" width="6" height="4.4" fill="#f9844a" /><rect x="452" y="174.4" width="6" height="5.6" fill="#f9844a" /><rect x="460" y="174.4" width="6" height="5.6" fill="#f9844a" /><rect x="468" y="174.4" width="6" height="5.6" fill="#f9844a" /><rect x="476" y="178.3" width="6" height="1.7" fill="#f9844a" /><rect x="484" y="179.0" width="6" height="1.0" fill="#f9844a" /><rect x="492" y="180.0" width="6" height="0.0" fill="#f9844a" /><rect x="500" y="175.1" width="6" height="4.9" fill="#f9844a" /><rect x="508" y="175.0" width="6" height="5.0" fill="#f9844a" /><rect x="516" y="177.5" width="6" height="2.5" fill="#f9844a" /><rect x="524" y="177.5" width="6" height="2.5" fill="#f9844a" /><rect x="532" y="177.5" width="6" height="2.5" fill="#f9844a" /><rect x="540" y="177.5" width="6" height="2.5" fill="#f9844a" /><rect x="548" y="179.4" width="6" height="0.6" fill="#f9844a" /><rect x="556" y="179.4" width="6" height="0.6" fill="#f9844a" /><rect x="564" y="179.4" width="6" height="0.6" fill="#f9844a" /><rect x="572" y="179.4" width="6" height="0.6" fill="#f9844a" /><rect x="580" y="177.3" width="6" height="2.7" fill="#f9844a" /><rect x="588" y="175.4" width="6" height="4.6" fill="#f9844a" /><rect x="596" y="172.4" width="6" height="7.6" fill="#f9844a" /><rect x="604" y="170.9" width="6" height="9.1" fill="#f9844a" /><rect x="612" y="169.8" width="6" height="10.2" fill="#f9844a" /><rect x="620" y="169.8" width="6" height="10.2" fill="#f9844a" /><rect x="628" y="169.8" width="6" height="10.2" fill="#f9844a" /><rect x="636" y="169.8" width="6" height="10.2" fill="#f9844a" /><rect x="644" y="169.9" width="6" height="10.1" fill="#f9844a" /><rect x="652" y="169.9" width="6" height="10.1" fill="#f9844a" /><text x="20" y="205" font-size="12">absolute correlation samples</text></svg>