<svg xmlns="http://www.w3.org/2000/svg" width="760" height="220"><rect x="20" y="157.52151168475604" width="4" height="22.47848831524395" fill="#f9844a"/><rect x="26" y="161.9943932168918" width="4" height="18.005606783108206" fill="#f9844a"/><rect x="32" y="174.39028894508056" width="4" height="5.609711054919453" fill="#f9844a"/><rect x="38" y="173.66186599874766" width="4" height="6.3381340012523495" fill="#f9844a"/><rect x="44" y="156.9793027814075" width="4" height="23.02069721859249" fill="#f9844a"/><rect x="50" y="154.7851420247633" width="4" height="25.214857975236704" fill="#f9844a"/><rect x="56" y="171.42829499756022" width="4" height="8.571705002439789" fill="#f9844a"/><rect x="62" y="173.82796032238065" width="4" height="6.172039677619356" fill="#f9844a"/><rect x="68" y="155.49461486103883" width="4" height="24.505385138961188" fill="#f9844a"/><rect x="74" y="160.61781138642175" width="4" height="19.382188613578265" fill="#f9844a"/><rect x="80" y="170.64898614215343" width="4" height="9.35101385784658" fill="#f9844a"/><rect x="86" y="178.37685185185185" width="4" height="1.6231481481481569" fill="#f9844a"/><rect x="92" y="154.81092425090932" width="4" height="25.189075749090684" fill="#f9844a"/><rect x="98" y="159.10421609016464" width="4" height="20.895783909835373" fill="#f9844a"/><rect x="104" y="173.13103615053947" width="4" height="6.868963849460541" fill="#f9844a"/><rect x="110" y="178.85652709359604" width="4" height="1.1434729064039473" fill="#f9844a"/><rect x="116" y="155.39225338246465" width="4" height="24.607746617535366" fill="#f9844a"/><rect x="122" y="162.77446303593908" width="4" height="17.225536964060918" fill="#f9844a"/><rect x="128" y="176.94847732605493" width="4" height="3.051522673945062" fill="#f9844a"/><rect x="134" y="178.62361623616235" width="4" height="1.3763837638376464" fill="#f9844a"/><rect x="140" y="155.48894200020197" width="4" height="24.511057999798037" fill="#f9844a"/><rect x="146" y="160.96887422955615" width="4" height="19.031125770443836" fill="#f9844a"/><rect x="152" y="175.9033622183709" width="4" height="4.096637781629115" fill="#f9844a"/><rect x="158" y="171.5660725261217" width="4" height="8.433927473878306" fill="#f9844a"/><rect x="164" y="155.2183920952167" width="4" height="24.781607904783286" fill="#f9844a"/><rect x="170" y="162.84298300818125" width="4" height="17.15701699181874" fill="#f9844a"/><rect x="176" y="175.61056123928606" width="4" height="4.389438760713937" fill="#f9844a"/><rect x="182" y="178.98062730627305" width="4" height="1.0193726937269443" fill="#f9844a"/><rect x="188" y="154.82628347837817" width="4" height="25.173716521621813" fill="#f9844a"/><rect x="194" y="158.53580500980738" width="4" height="21.46419499019262" fill="#f9844a"/><rect x="200" y="176.26736111111111" width="4" height="3.732638888888895" fill="#f9844a"/><rect x="206" y="176.65363300492612" width="4" height="3.3463669950738852" fill="#f9844a"/><rect x="212" y="153.88718515344894" width="4" height="26.112814846551068" fill="#f9844a"/><rect x="218" y="161.39137389464724" width="4" height="18.608626105352766" fill="#f9844a"/><rect x="224" y="173.11245462832983" width="4" height="6.887545371670178" fill="#f9844a"/><rect x="230" y="168.47212620784367" width="4" height="11.52787379215634" fill="#f9844a"/><rect x="236" y="152.6228375270486" width="4" height="27.37716247295139" fill="#f9844a"/><rect x="242" y="151.672939094242" width="4" height="28.327060905757996" fill="#f9844a"/><rect x="248" y="166.5128356696504" width="4" height="13.487164330349588" fill="#f9844a"/><rect x="254" y="161.86845005697634" width="4" height="18.13154994302366" fill="#f9844a"/><rect x="260" y="153.3655245099724" width="4" height="26.634475490027608" fill="#f9844a"/><rect x="266" y="163.0086132134973" width="4" height="16.991386786502694" fill="#f9844a"/><rect x="272" y="179.6855508237622" width="4" height="0.31444917623779656" fill="#f9844a"/><rect x="278" y="178.87785532994923" width="4" height="1.122144670050762" fill="#f9844a"/><rect x="284" y="158.9704947687494" width="4" height="21.02950523125061" fill="#f9844a"/><rect x="290" y="162.344301831824" width="4" height="17.65569816817599" fill="#f9844a"/><rect x="296" y="174.06256215018323" width="4" height="5.937437849816762" fill="#f9844a"/><rect x="302" y="174.61709455228555" width="4" height="5.3829054477144584" fill="#f9844a"/><rect x="308" y="157.83274220645885" width="4" height="22.16725779354115" fill="#f9844a"/><rect x="314" y="157.1638085148646" width="4" height="22.836191485135405" fill="#f9844a"/><rect x="320" y="173.48361965977352" width="4" height="6.516380340226469" fill="#f9844a"/><rect x="326" y="176.09609423434594" width="4" height="3.90390576565407" fill="#f9844a"/><rect x="332" y="155.96763768853708" width="4" height="24.03236231146293" fill="#f9844a"/><rect x="338" y="161.1168899729686" width="4" height="18.883110027031393" fill="#f9844a"/><rect x="344" y="172.86256066903604" width="4" height="7.137439330963968" fill="#f9844a"/><rect x="350" y="179.975" width="4" height="0.024999999999997247" fill="#f9844a"/><rect x="356" y="155.30928097476541" width="4" height="24.690719025234596" fill="#f9844a"/><rect x="362" y="158.98745686126" width="4" height="21.012543138740014" fill="#f9844a"/><rect x="368" y="174.9989506878901" width="4" height="5.001049312109885" fill="#f9844a"/><rect x="374" y="175.22844827586206" width="4" height="4.7715517241379235" fill="#f9844a"/><rect x="380" y="155.68254057551124" width="4" height="24.317459424488753" fill="#f9844a"/><rect x="386" y="161.43741890673007" width="4" height="18.562581093269937" fill="#f9844a"/><rect x="392" y="176.486825508934" width="4" height="3.5131744910659957" fill="#f9844a"/><rect x="398" y="178.08856088560884" width="4" height="1.9114391143911447" fill="#f9844a"/><rect x="404" y="155.8945703032955" width="4" height="24.105429696704494" fill="#f9844a"/><rect x="410" y="161.32020624312173" width="4" height="18.67979375687826" fill="#f9844a"/><rect x="416" y="178.8087348353553" width="4" height="1.191265164644717" fill="#f9844a"/><rect x="422" y="178.0823601720959" width="4" height="1.9176398279041107" fill="#f9844a"/><rect x="428" y="155.61587693689648" width="4" height="24.384123063103512" fill="#f9844a"/><rect x="434" y="163.05923376273103" width="4" height="16.940766237268967" fill="#f9844a"/><rect x="440" y="176.3178168184461" width="4" height="3.6821831815538997" fill="#f9844a"/><rect x="446" y="178.08025830258302" width="4" height="1.9197416974169823" fill="#f9844a"/><rect x="452" y="155.2636668240797" width="4" height="24.7363331759203" fill="#f9844a"/><rect x="458" y="160.03537091224797" width="4" height="19.964629087752016" fill="#f9844a"/><rect x="464" y="177.5181123130342" width="4" height="2.4818876869658" fill="#f9844a"/><rect x="470" y="179.72383004926107" width="4" height="0.2761699507389248" fill="#f9844a"/><rect x="476" y="154.48474530407918" width="4" height="25.51525469592081" fill="#f9844a"/><rect x="482" y="159.7118181642275" width="4" height="20.28818183577249" fill="#f9844a"/><rect x="488" y="171.29493123640248" width="4" height="8.705068763597524" fill="#f9844a"/><rect x="494" y="166.89483816367465" width="4" height="13.105161836325363" fill="#f9844a"/><rect x="500" y="154.0945087065381" width="4" height="25.905491293461893" fill="#f9844a"/><rect x="506" y="153.59356614250567" width="4" height="26.406433857494328" fill="#f9844a"/><rect x="512" y="167.83018071271744" width="4" height="12.169819287282568" fill="#f9844a"/><rect x="518" y="163.78229437148568" width="4" height="16.217705628514313" fill="#f9844a"/><rect x="524" y="154.6611907298576" width="4" height="25.33880927014239" fill="#f9844a"/><rect x="530" y="164.16706086408072" width="4" height="15.832939135919267" fill="#f9844a"/><rect x="536" y="179.64382500967866" width="4" height="0.35617499032133404" fill="#f9844a"/><rect x="542" y="179.8581852791878" width="4" height="0.14181472081218893" fill="#f9844a"/><rect x="548" y="159.37017209347803" width="4" height="20.629827906521957" fill="#f9844a"/><rect x="554" y="163.37908312605643" width="4" height="16.62091687394357" fill="#f9844a"/><rect x="560" y="174.59016393442624" width="4" height="5.40983606557377" fill="#f9844a"/><rect x="566" y="176.99906073888542" width="4" height="3.000939261114588" fill="#f9844a"/><rect x="572" y="159.29461452305395" width="4" height="20.70538547694605" fill="#f9844a"/><rect x="578" y="159.156127921605" width="4" height="20.84387207839502" fill="#f9844a"/><rect x="584" y="173.79111911292085" width="4" height="6.2088808870791485" fill="#f9844a"/><rect x="590" y="176.7703037817731" width="4" height="3.2296962182269073" fill="#f9844a"/><rect x="596" y="158.54495432784427" width="4" height="21.455045672155727" fill="#f9844a"/><rect x="602" y="163.19239210663955" width="4" height="16.807607893360444" fill="#f9844a"/><rect x="608" y="171.7871449266673" width="4" height="8.212855073332681" fill="#f9844a"/><rect x="614" y="179.9601851851852" width="4" height="0.039814814814809196" fill="#f9844a"/><text x="20" y="205">Kp/Dst feature x target AUC strength</text></svg>