<svg xmlns="http://www.w3.org/2000/svg" width="760" height="220"><rect x="20" y="164.90489669174656" width="4" height="15.095103308253428" fill="#277da1"/><rect x="26" y="165.733139279156" width="4" height="14.266860720844" fill="#277da1"/><rect x="32" y="167.27654343542824" width="4" height="12.723456564571753" fill="#277da1"/><rect x="38" y="168.98438463348074" width="4" height="11.015615366519265" fill="#277da1"/><rect x="44" y="164.90489669174656" width="4" height="15.095103308253428" fill="#277da1"/><rect x="50" y="167.83834839219577" width="4" height="12.161651607804224" fill="#277da1"/><rect x="56" y="165.87302788867592" width="4" height="14.12697211132407" fill="#277da1"/><rect x="62" y="167.74178273245087" width="4" height="12.258217267549135" fill="#277da1"/><rect x="68" y="165.73946759504767" width="4" height="14.260532404952336" fill="#277da1"/><rect x="74" y="180.0" width="4" height="0.0" fill="#277da1"/><rect x="80" y="180.0" width="4" height="0.0" fill="#277da1"/><rect x="86" y="180.0" width="4" height="0.0" fill="#277da1"/><rect x="92" y="180.0" width="4" height="0.0" fill="#277da1"/><rect x="98" y="180.0" width="4" height="0.0" fill="#277da1"/><rect x="104" y="180.0" width="4" height="0.0" fill="#277da1"/><rect x="110" y="180.0" width="4" height="0.0" fill="#277da1"/><rect x="116" y="180.0" width="4" height="0.0" fill="#277da1"/><rect x="122" y="180.0" width="4" height="0.0" fill="#277da1"/><rect x="128" y="171.59558361228454" width="4" height="8.404416387715449" fill="#277da1"/><rect x="134" y="172.7799059110871" width="4" height="7.220094088912908" fill="#277da1"/><rect x="140" y="162.2640247493528" width="4" height="17.735975250647197" fill="#277da1"/><rect x="146" y="165.50815445522244" width="4" height="14.491845544777547" fill="#277da1"/><rect x="152" y="155.77331680323482" width="4" height="24.22668319676517" fill="#277da1"/><rect x="158" y="164.32215535608506" width="4" height="15.677844643914938" fill="#277da1"/><rect x="164" y="148.22303252147418" width="4" height="31.77696747852583" fill="#277da1"/><rect x="170" y="165.48933788266243" width="4" height="14.510662117337567" fill="#277da1"/><rect x="176" y="180.0" width="4" height="0.0" fill="#277da1"/><rect x="182" y="180.0" width="4" height="0.0" fill="#277da1"/><rect x="188" y="180.0" width="4" height="0.0" fill="#277da1"/><rect x="194" y="180.0" width="4" height="0.0" fill="#277da1"/><rect x="200" y="180.0" width="4" height="0.0" fill="#277da1"/><rect x="206" y="180.0" width="4" height="0.0" fill="#277da1"/><rect x="212" y="180.0" width="4" height="0.0" fill="#277da1"/><rect x="218" y="180.0" width="4" height="0.0" fill="#277da1"/><rect x="224" y="164.90489669174656" width="4" height="15.095103308253428" fill="#277da1"/><rect x="230" y="164.9048966917466" width="4" height="15.095103308253423" fill="#277da1"/><rect x="236" y="164.9048966917466" width="4" height="15.095103308253423" fill="#277da1"/><rect x="242" y="162.92978603320734" width="4" height="17.07021396679266" fill="#277da1"/><rect x="248" y="164.7874029258468" width="4" height="15.212597074153189" fill="#277da1"/><rect x="254" y="173.3481167051856" width="4" height="6.651883294814419" fill="#277da1"/><rect x="260" y="171.9706023499622" width="4" height="8.029397650037803" fill="#277da1"/><rect x="266" y="172.300718865882" width="4" height="7.6992811341179905" fill="#277da1"/><rect x="272" y="180.0" width="4" height="0.0" fill="#277da1"/><rect x="278" y="180.0" width="4" height="0.0" fill="#277da1"/><rect x="284" y="180.0" width="4" height="0.0" fill="#277da1"/><rect x="290" y="180.0" width="4" height="0.0" fill="#277da1"/><text x="20" y="205">Kp/Dst feature x Excel dataset max |correlation|</text></svg>