<svg xmlns="http://www.w3.org/2000/svg" width="760" height="220"><rect x="20" y="173.87652551497" width="3" height="6.123474485029975" fill="#277da1"/><rect x="24" y="169.8548691241463" width="3" height="10.145130875853708" fill="#277da1"/><rect x="28" y="174.0697442246658" width="3" height="5.930255775334199" fill="#277da1"/><rect x="32" y="175.8924101219879" width="3" height="4.107589878012096" fill="#277da1"/><rect x="36" y="177.27572619099868" width="3" height="2.7242738090013057" fill="#277da1"/><rect x="40" y="172.49618867838623" width="3" height="7.503811321613759" fill="#277da1"/><rect x="44" y="178.26107146481033" width="3" height="1.7389285351896606" fill="#277da1"/><rect x="48" y="170.8202557122671" width="3" height="9.179744287732898" fill="#277da1"/><rect x="52" y="174.18729674058437" width="3" height="5.812703259415634" fill="#277da1"/><rect x="56" y="173.0789984749349" width="3" height="6.921001525065093" fill="#277da1"/><rect x="60" y="173.7310499706393" width="3" height="6.268950029360687" fill="#277da1"/><rect x="64" y="168.83318800381042" width="3" height="11.166811996189592" fill="#277da1"/><rect x="68" y="166.71693128127933" width="3" height="13.283068718720678" fill="#277da1"/><rect x="72" y="173.83031140071537" width="3" height="6.169688599284625" fill="#277da1"/><rect x="76" y="177.47331440762724" width="3" height="2.5266855923727594" fill="#277da1"/><rect x="80" y="170.9743163978707" width="3" height="9.025683602129298" fill="#277da1"/><rect x="84" y="175.9079491106749" width="3" height="4.092050889325097" fill="#277da1"/><rect x="88" y="169.57755451535016" width="3" height="10.422445484649849" fill="#277da1"/><rect x="92" y="177.1762177711709" width="3" height="2.823782228829091" fill="#277da1"/><rect x="96" y="177.20084164729866" width="3" height="2.799158352701338" fill="#277da1"/><rect x="100" y="173.56503737807776" width="3" height="6.434962621922251" fill="#277da1"/><rect x="104" y="167.853849384769" width="3" height="12.146150615231004" fill="#277da1"/><rect x="108" y="173.86189888889766" width="3" height="6.13810111110234" fill="#277da1"/><rect x="112" y="174.8358070044691" width="3" height="5.164192995530904" fill="#277da1"/><rect x="116" y="179.5765091703728" width="3" height="0.42349082962721024" fill="#277da1"/><rect x="120" y="170.28312273637323" width="3" height="9.716877263626778" fill="#277da1"/><rect x="124" y="173.04916675258764" width="3" height="6.9508332474123495" fill="#277da1"/><rect x="128" y="165.67938624756883" width="3" height="14.320613752431173" fill="#277da1"/><rect x="132" y="178.61816195827674" width="3" height="1.3818380417232519" fill="#277da1"/><rect x="136" y="171.09525305712128" width="3" height="8.904746942878711" fill="#277da1"/><rect x="140" y="169.4569034152658" width="3" height="10.543096584734204" fill="#277da1"/><rect x="144" y="167.61652360277742" width="3" height="12.38347639722257" fill="#277da1"/><rect x="148" y="172.4773620239246" width="3" height="7.52263797607539" fill="#277da1"/><rect x="152" y="176.63292543802197" width="3" height="3.3670745619780393" fill="#277da1"/><rect x="156" y="179.07019894019484" width="3" height="0.9298010598051488" fill="#277da1"/><rect x="160" y="171.51916363227465" width="3" height="8.480836367725338" fill="#277da1"/><rect x="164" y="179.08422590000046" width="3" height="0.9157740999995448" fill="#277da1"/><rect x="168" y="167.04051762995635" width="3" height="12.959482370043652" fill="#277da1"/><rect x="172" y="172.7515150114762" width="3" height="7.248484988523825" fill="#277da1"/><rect x="176" y="173.5008025581337" width="3" height="6.499197441866304" fill="#277da1"/><rect x="180" y="174.92751185359168" width="3" height="5.072488146408327" fill="#277da1"/><rect x="184" y="168.1760304382134" width="3" height="11.823969561786601" fill="#277da1"/><rect x="188" y="174.41374634727214" width="3" height="5.58625365272787" fill="#277da1"/><rect x="192" y="178.14421556244235" width="3" height="1.8557844375576331" fill="#277da1"/><rect x="196" y="179.6237413883238" width="3" height="0.3762586116761948" fill="#277da1"/><rect x="200" y="171.0347114843089" width="3" height="8.965288515691109" fill="#277da1"/><rect x="204" y="174.52884648532242" width="3" height="5.47115351467759" fill="#277da1"/><rect x="208" y="168.29453823489223" width="3" height="11.70546176510776" fill="#277da1"/><rect x="212" y="175.41359246395646" width="3" height="4.586407536043532" fill="#277da1"/><rect x="216" y="175.08935193535456" width="3" height="4.910648064645444" fill="#277da1"/><rect x="220" y="172.92371465078884" width="3" height="7.076285349211152" fill="#277da1"/><rect x="224" y="168.15772058799274" width="3" height="11.842279412007258" fill="#277da1"/><rect x="228" y="172.7579802524141" width="3" height="7.2420197475859025" fill="#277da1"/><rect x="232" y="176.351305981228" width="3" height="3.6486940187720154" fill="#277da1"/><rect x="236" y="176.71065797295577" width="3" height="3.2893420270442295" fill="#277da1"/><rect x="240" y="174.62064691105402" width="3" height="5.379353088945974" fill="#277da1"/><rect x="244" y="179.55539130088505" width="3" height="0.44460869911494544" fill="#277da1"/><rect x="248" y="169.1061136631164" width="3" height="10.89388633688362" fill="#277da1"/><rect x="252" y="173.6968406404716" width="3" height="6.303159359528407" fill="#277da1"/><rect x="256" y="171.37287889429703" width="3" height="8.62712110570298" fill="#277da1"/><rect x="260" y="174.28842605581764" width="3" height="5.711573944182367" fill="#277da1"/><rect x="264" y="167.5830893772647" width="3" height="12.416910622735296" fill="#277da1"/><rect x="268" y="174.11643170762068" width="3" height="5.88356829237931" fill="#277da1"/><rect x="272" y="177.8104570395126" width="3" height="2.189542960487389" fill="#277da1"/><rect x="276" y="178.14731775005575" width="3" height="1.8526822499442441" fill="#277da1"/><rect x="280" y="171.21621557471897" width="3" height="8.783784425281036" fill="#277da1"/><rect x="284" y="176.6920598452369" width="3" height="3.30794015476309" fill="#277da1"/><rect x="288" y="168.23251780122493" width="3" height="11.767482198775076" fill="#277da1"/><rect x="292" y="176.54918625520946" width="3" height="3.450813744790549" fill="#277da1"/><rect x="296" y="171.9963336468568" width="3" height="8.0036663531432" fill="#277da1"/><rect x="300" y="168.6067890561105" width="3" height="11.393210943889487" fill="#277da1"/><rect x="304" y="167.50288845340432" width="3" height="12.497111546595683" fill="#277da1"/><rect x="308" y="169.77439395536513" width="3" height="10.225606044634876" fill="#277da1"/><rect x="312" y="177.763727309819" width="3" height="2.2362726901809973" fill="#277da1"/><rect x="316" y="178.73274815020915" width="3" height="1.2672518497908523" fill="#277da1"/><rect x="320" y="169.27682649153834" width="3" height="10.723173508461647" fill="#277da1"/><rect x="324" y="175.30684756337706" width="3" height="4.693152436622935" fill="#277da1"/><rect x="328" y="169.0834036559262" width="3" height="10.916596344073797" fill="#277da1"/><rect x="332" y="170.35184552268282" width="3" height="9.648154477317188" fill="#277da1"/><rect x="336" y="169.47047791466912" width="3" height="10.529522085330871" fill="#277da1"/><rect x="340" y="167.75290194093054" width="3" height="12.247098059069472" fill="#277da1"/><rect x="344" y="166.67211411266868" width="3" height="13.327885887331327" fill="#277da1"/><rect x="348" y="174.6571238757157" width="3" height="5.3428761242843015" fill="#277da1"/><rect x="352" y="176.37117209709385" width="3" height="3.628827902906163" fill="#277da1"/><rect x="356" y="174.4641254738548" width="3" height="5.535874526145189" fill="#277da1"/><rect x="360" y="169.09681117343874" width="3" height="10.903188826561257" fill="#277da1"/><rect x="364" y="179.8985878486817" width="3" height="0.10141215131829848" fill="#277da1"/><rect x="368" y="165.75869476529718" width="3" height="14.241305234702823" fill="#277da1"/><rect x="372" y="172.59537744152098" width="3" height="7.40462255847903" fill="#277da1"/><rect x="376" y="168.94828011719255" width="3" height="11.051719882807445" fill="#277da1"/><rect x="380" y="176.4803233810774" width="3" height="3.5196766189226087" fill="#277da1"/><rect x="384" y="166.44740016739843" width="3" height="13.552599832601572" fill="#277da1"/><rect x="388" y="166.70475914411884" width="3" height="13.295240855881161" fill="#277da1"/><rect x="392" y="171.73970886676432" width="3" height="8.260291133235695" fill="#277da1"/><rect x="396" y="169.93070498690068" width="3" height="10.069295013099321" fill="#277da1"/><rect x="400" y="164.90489669174656" width="3" height="15.095103308253428" fill="#277da1"/><rect x="404" y="174.550810552528" width="3" height="5.449189447471994" fill="#277da1"/><rect x="408" y="167.05169450353074" width="3" height="12.948305496469265" fill="#277da1"/><rect x="412" y="177.53703515756067" width="3" height="2.4629648424393435" fill="#277da1"/><rect x="416" y="170.84597337919402" width="3" height="9.15402662080597" fill="#277da1"/><rect x="420" y="174.2126727549884" width="3" height="5.787327245011606" fill="#277da1"/><rect x="424" y="166.03904248566107" width="3" height="13.960957514338938" fill="#277da1"/><rect x="428" y="175.28183399772425" width="3" height="4.7181660022757494" fill="#277da1"/><rect x="432" y="178.12907203685162" width="3" height="1.8709279631483815" fill="#277da1"/><rect x="436" y="178.51562234256102" width="3" height="1.484377657438975" fill="#277da1"/><rect x="440" y="171.89010985941067" width="3" height="8.109890140589323" fill="#277da1"/><rect x="444" y="176.47191738927674" width="3" height="3.528082610723259" fill="#277da1"/><rect x="448" y="168.1226513520362" width="3" height="11.877348647963785" fill="#277da1"/><rect x="452" y="173.86442306247562" width="3" height="6.1355769375243785" fill="#277da1"/><rect x="456" y="167.499640992149" width="3" height="12.500359007850996" fill="#277da1"/><rect x="460" y="175.06264138055278" width="3" height="4.9373586194472185" fill="#277da1"/><rect x="464" y="171.09595138108403" width="3" height="8.904048618915962" fill="#277da1"/><rect x="468" y="172.58931540239095" width="3" height="7.410684597609056" fill="#277da1"/><rect x="472" y="176.0441327409535" width="3" height="3.955867259046489" fill="#277da1"/><rect x="476" y="177.7684784309627" width="3" height="2.231521569037306" fill="#277da1"/><rect x="480" y="172.9793274029674" width="3" height="7.0206725970325845" fill="#277da1"/><rect x="484" y="179.5916251727976" width="3" height="0.4083748272024071" fill="#277da1"/><rect x="488" y="171.5421517203685" width="3" height="8.457848279631492" fill="#277da1"/><rect x="492" y="175.45827668445463" width="3" height="4.5417233155453784" fill="#277da1"/><rect x="496" y="175.0946614419259" width="3" height="4.905338558074111" fill="#277da1"/><rect x="500" y="175.58932927906713" width="3" height="4.410670720932882" fill="#277da1"/><rect x="504" y="170.13972161389594" width="3" height="9.860278386104062" fill="#277da1"/><rect x="508" y="169.02327441402502" width="3" height="10.976725585974977" fill="#277da1"/><rect x="512" y="176.9447398591346" width="3" height="3.0552601408654128" fill="#277da1"/><rect x="516" y="179.18606749471732" width="3" height="0.8139325052826802" fill="#277da1"/><rect x="520" y="174.03637650383834" width="3" height="5.963623496161647" fill="#277da1"/><rect x="524" y="176.797310697772" width="3" height="3.2026893022280083" fill="#277da1"/><rect x="528" y="170.95118471159165" width="3" height="9.04881528840834" fill="#277da1"/><rect x="532" y="177.9845213247482" width="3" height="2.015478675251819" fill="#277da1"/><rect x="536" y="179.6937986654548" width="3" height="0.30620133454520004" fill="#277da1"/><rect x="540" y="175.5868658602413" width="3" height="4.413134139758706" fill="#277da1"/><rect x="544" y="168.96972228255058" width="3" height="11.030277717449412" fill="#277da1"/><rect x="548" y="174.41486276520527" width="3" height="5.585137234794738" fill="#277da1"/><rect x="552" y="176.3017195682434" width="3" height="3.698280431756599" fill="#277da1"/><rect x="556" y="178.79731723541985" width="3" height="1.2026827645801597" fill="#277da1"/><rect x="560" y="171.6211471938939" width="3" height="8.378852806106092" fill="#277da1"/><rect x="564" y="175.92414716265432" width="3" height="4.075852837345675" fill="#277da1"/><rect x="568" y="166.39293404076102" width="3" height="13.607065959238978" fill="#277da1"/><rect x="572" y="179.97626848140396" width="3" height="0.023731518596031138" fill="#277da1"/><rect x="576" y="170.80083759197478" width="3" height="9.199162408025224" fill="#277da1"/><rect x="580" y="172.01967514082213" width="3" height="7.980324859177878" fill="#277da1"/><rect x="584" y="168.71167227667192" width="3" height="11.28832772332807" fill="#277da1"/><rect x="588" y="173.20050029817767" width="3" height="6.799499701822317" fill="#277da1"/><rect x="592" y="177.81482964771635" width="3" height="2.1851703522836554" fill="#277da1"/><rect x="596" y="176.73176617355253" width="3" height="3.2682338264474624" fill="#277da1"/><rect x="600" y="173.43988337306197" width="3" height="6.560116626938022" fill="#277da1"/><rect x="604" y="178.62058663208163" width="3" height="1.3794133679183862" fill="#277da1"/><rect x="608" y="168.81919619661662" width="3" height="11.180803803383375" fill="#277da1"/><rect x="612" y="173.6973731235465" width="3" height="6.302626876453512" fill="#277da1"/><rect x="616" y="176.11006955219975" width="3" height="3.88993044780025" fill="#277da1"/><rect x="620" y="175.38666853254418" width="3" height="4.613331467455835" fill="#277da1"/><rect x="624" y="169.0517882136484" width="3" height="10.948211786351594" fill="#277da1"/><rect x="628" y="173.5731332866252" width="3" height="6.426866713374797" fill="#277da1"/><rect x="632" y="177.85819330921305" width="3" height="2.141806690786964" fill="#277da1"/><rect x="636" y="179.85297081909707" width="3" height="0.14702918090292277" fill="#277da1"/><rect x="640" y="170.94855004525598" width="3" height="9.051449954744003" fill="#277da1"/><rect x="644" y="175.4020663783571" width="3" height="4.597933621642905" fill="#277da1"/><rect x="648" y="169.26802359860503" width="3" height="10.731976401394968" fill="#277da1"/><rect x="652" y="176.71240080037282" width="3" height="3.287599199627188" fill="#277da1"/><rect x="656" y="173.76553875715123" width="3" height="6.234461242848756" fill="#277da1"/><text x="20" y="205">external feature x target max |correlation|</text></svg>